<?xml version="1.0" encoding="UTF-8" standalone="no"?>
<!DOCTYPE svg PUBLIC "-//W3C//DTD SVG 1.0//EN" "http://www.w3.org/TR/2001/PR-SVG-20010719/DTD/svg10.dtd">
<svg width="19cm" height="19cm" viewBox="8 18 363 363" xmlns="http://www.w3.org/2000/svg" xmlns:xlink="http://www.w3.org/1999/xlink">
  <g>
    <rect style="fill: #8b6914" x="10" y="50" width="360" height="330"/>
    <rect style="fill: none; fill-opacity:0; stroke-width: 2; stroke: #000000" x="10" y="50" width="360" height="330"/>
  </g>
  <g>
    <rect style="fill: #ffffff" x="30" y="70" width="320" height="300"/>
    <rect style="fill: none; fill-opacity:0; stroke-width: 2; stroke: #000000" x="30" y="70" width="320" height="300"/>
  </g>
  <line style="fill: none; fill-opacity:0; stroke-width: 0.4; stroke: #000000" x1="30" y1="370" x2="350" y2="370"/>
  <line style="fill: none; fill-opacity:0; stroke-width: 2; stroke: #000000" x1="30" y1="140" x2="350" y2="140"/>
  <line style="fill: none; fill-opacity:0; stroke-width: 2; stroke: #000000" x1="30" y1="180" x2="350" y2="180"/>
  <line style="fill: none; fill-opacity:0; stroke-width: 2; stroke: #000000" x1="30" y1="220" x2="350" y2="220"/>
  <line style="fill: none; fill-opacity:0; stroke-width: 2; stroke: #000000" x1="30" y1="260" x2="350" y2="260"/>
  <line style="fill: none; fill-opacity:0; stroke-width: 2; stroke: #000000" x1="30" y1="300" x2="350" y2="300"/>
  <g>
    <polygon style="fill: #eac778" points="100,200 160,260 60,300 "/>
    <polygon style="fill: none; fill-opacity:0; stroke-width: 2; stroke: #000000" points="100,200 160,260 60,300 "/>
  </g>
  <g>
    <polygon style="fill: #000000" points="77,258 100,284 60,300 "/>
    <polygon style="fill: none; fill-opacity:0; stroke-width: 2; stroke: #000000" points="77,258 100,284 60,300 "/>
  </g>
  <g>
    <polygon style="fill: #ffff00" points="100,200 160,260 260,160 220,120 "/>
    <polygon style="fill: none; fill-opacity:0; stroke-width: 2; stroke: #000000" points="100,200 160,260 260,160 220,120 "/>
  </g>
  <line style="fill: none; fill-opacity:0; stroke-width: 2; stroke: #000000" x1="108" y1="208" x2="220" y2="120"/>
  <line style="fill: none; fill-opacity:0; stroke-width: 2; stroke: #000000" x1="148" y1="248" x2="260" y2="160"/>
  <line style="fill: none; fill-opacity:0; stroke-width: 2; stroke: #000000" x1="130" y1="230" x2="240" y2="140"/>
  <line style="fill: none; fill-opacity:0; stroke-width: 2; stroke: #000000" x1="30" y1="340" x2="350" y2="340"/>
  <ellipse style="fill: none; fill-opacity:0; stroke-width: 2; stroke: #000000" cx="110" cy="60" rx="10" ry="40"/>
  <ellipse style="fill: none; fill-opacity:0; stroke-width: 2; stroke: #000000" cx="150" cy="60" rx="10" ry="40"/>
  <ellipse style="fill: none; fill-opacity:0; stroke-width: 2; stroke: #000000" cx="190" cy="60" rx="10" ry="40"/>
  <ellipse style="fill: none; fill-opacity:0; stroke-width: 2; stroke: #000000" cx="70" cy="60" rx="10" ry="40"/>
  <ellipse style="fill: none; fill-opacity:0; stroke-width: 2; stroke: #000000" cx="270" cy="60" rx="10" ry="40"/>
  <ellipse style="fill: none; fill-opacity:0; stroke-width: 2; stroke: #000000" cx="310" cy="60" rx="10" ry="40"/>
  <ellipse style="fill: none; fill-opacity:0; stroke-width: 2; stroke: #000000" cx="230" cy="60" rx="10" ry="40"/>
</svg>
